<svg height="40" version="1.1" viewBox="8 8 24 24" width="40" xmlns="http://www.w3.org/2000/svg" xmlns:xlink="http://www.w3.org/1999/xlink">
<defs>
<path d="M15.6808511,5.7332104 C19.1708207,5.7332104 22,8.56238974 22,12.0523593 C22,15.5423289 19.1708207,18.3715083 15.6808511,18.3715083 L6.31914894,18.3715083 C2.82917935,18.3715083 4.27398009e-16,15.5423289 0,12.0523593 C-4.27398009e-16,8.56238974 2.82917935,5.7332104 6.31914894,5.7332104 L15.6808511,5.7332104 Z M5.3613428,9.18050118 C4.88535224,9.18050118 4.50089834,9.55164065 4.50089834,10.0118203 L4.50089834,10.0118203 L4.50089834,11.2600473 L3.20939953,11.2600473 C2.733409,11.2600473 2.34812294,11.6320189 2.34812294,12.0921986 C2.34812294,12.5515461 2.733409,12.9243499 3.20939953,12.9243499 L3.20939953,12.9243499 L4.5017305,12.9243499 L4.5017305,14.1725768 C4.5017305,14.6335887 4.88784869,15.0063924 5.36217493,15.0063924 C5.83816547,15.0063924 6.22345153,14.6335887 6.22345153,14.1725768 L6.22345153,14.1725768 L6.22345153,12.9243499 L7.51328606,12.925182 C7.99010875,12.925182 8.37456265,12.5515461 8.37456265,12.0938629 C8.37456265,11.6328511 7.99010875,11.2600473 7.51328606,11.2600473 L7.51328606,11.2600473 L6.22261939,11.2600473 L6.22261939,10.0118203 C6.22261939,9.55330496 5.83733333,9.18050118 5.3613428,9.18050118 Z M16.5521135,13.3395934 C16.0761229,13.3395934 15.691669,13.7107329 15.691669,14.1717447 C15.691669,14.6319243 16.0761229,15.0047281 16.5521135,15.0047281 C17.0264397,15.0047281 17.4133901,14.6319244 17.4133901,14.1717447 C17.4133901,13.7132293 17.0289362,13.3395934 16.5521135,13.3395934 Z M18.7048889,11.2608794 C18.2280662,11.2608794 17.8436123,11.6328511 17.8436123,12.0930307 C17.8436123,12.5523782 18.2280662,12.925182 18.7048889,12.925182 C19.178383,12.925182 19.5653333,12.5523783 19.5653333,12.0930307 C19.5653333,11.6328511 19.1808794,11.2608794 18.7048889,11.2608794 Z M14.4001702,11.2600473 C13.9241797,11.2600473 13.5397258,11.6320189 13.5397258,12.0921986 C13.5397258,12.5515461 13.9241797,12.9243499 14.4001702,12.9243499 C14.8769929,12.9243499 15.2614468,12.5515461 15.2614468,12.0921986 C15.2614468,11.6320189 14.8769929,11.2600473 14.4001702,11.2600473 Z M16.5521135,9.18050118 C16.0761229,9.18050118 15.691669,9.55164065 15.691669,10.0118203 C15.691669,10.472 16.0761229,10.8448038 16.5521135,10.8448038 C17.0264397,10.8448038 17.4133901,10.472 17.4133901,10.0118203 C17.4133901,9.55330496 17.0289362,9.18050118 16.5521135,9.18050118 Z" id="uxs-a"></path>
</defs>
<g fill="none" fill-rule="evenodd" stroke="none" stroke-width="40">

<g transform="translate(9 9.012)">
<path d="M15.8598968,0.160125032 C16.3612617,0.160125032 16.7705748,0.554245313 16.7949213,1.04957091 L16.796067,1.09629524 L16.796067,1.51900869 C16.796067,3.17535934 15.4725115,4.52257702 13.8253312,4.56073093 L13.7535138,4.56156188 L12.9893617,4.56156188 C12.3600787,4.56156188 11.8468085,5.05827196 11.8202301,5.68101325 L11.8191489,5.73177465 L11.8191489,6.43617021 C11.8191489,6.95320274 11.4000113,7.37234043 10.8829787,7.37234043 C10.3816138,7.37234043 9.97230069,6.97822015 9.94795422,6.48289455 L9.94680851,6.43617021 L9.94680851,5.73177465 C9.94680851,4.075424 11.270364,2.72820631 12.9175443,2.69005241 L12.9893617,2.68922146 L13.7535138,2.68922146 C14.3827968,2.68922146 14.896067,2.19251138 14.9226454,1.56977009 L14.9237266,1.51900869 L14.9237266,1.09629524 C14.9237266,0.579262713 15.3428643,0.160125032 15.8598968,0.160125032 Z" fill="#000" fill-opacity=".6"></path>
<use fill="#000" fill-rule="nonzero" xlink:href="#uxs-a"></use>
</g>
</g>
</svg>
